<?xml version="1.0" encoding="UTF-8" standalone="no"?>
<!-- Created with Inkscape (http://www.inkscape.org/) -->

<svg
   width="1023.5917"
   height="1023.592"
   viewBox="0 0 270.82531 270.82537"
   version="1.1"
   id="svg1"
   xml:space="preserve"
   sodipodi:docname="design.svg"
   inkscape:version="1.4.3 (0d15f75042, 2025-12-25)"
   inkscape:export-filename="../spectrum_launcher/spectum_launcher_dark.svg"
   inkscape:export-xdpi="96"
   inkscape:export-ydpi="96"
   xmlns:inkscape="http://www.inkscape.org/namespaces/inkscape"
   xmlns:sodipodi="http://sodipodi.sourceforge.net/DTD/sodipodi-0.dtd"
   xmlns="http://www.w3.org/2000/svg"
   xmlns:svg="http://www.w3.org/2000/svg"><sodipodi:namedview
     id="namedview1"
     pagecolor="#ffffff"
     bordercolor="#000000"
     borderopacity="0.25"
     inkscape:showpageshadow="2"
     inkscape:pageopacity="0.0"
     inkscape:pagecheckerboard="0"
     inkscape:deskcolor="#ffffff"
     inkscape:document-units="mm"
     showgrid="true"
     inkscape:zoom="0.19645691"
     inkscape:cx="15723.55"
     inkscape:cy="1445.6096"
     inkscape:window-width="2560"
     inkscape:window-height="1360"
     inkscape:window-x="0"
     inkscape:window-y="0"
     inkscape:window-maximized="1"
     inkscape:current-layer="layer1"
     inkscape:export-bgcolor="#ffffff00"><inkscape:grid
       id="grid2"
       units="mm"
       originx="-4014.2842"
       originy="-17.777222"
       spacingx="4"
       spacingy="4"
       empcolor="#0099e5"
       empopacity="0.09803922"
       color="#0099e5"
       opacity="0.14901961"
       empspacing="5"
       enabled="true"
       visible="false"
       dotted="false" /><inkscape:page
       x="0"
       y="-1.9591995e-21"
       width="270.82532"
       height="270.82538"
       id="page2"
       margin="0"
       bleed="0" /></sodipodi:namedview><defs
     id="defs1" /><g
     inkscape:label="Logos"
     inkscape:groupmode="layer"
     id="layer1"
     transform="translate(-4554.2839,-557.77724)"><g
       id="g30"
       style="opacity:1"
       transform="matrix(-0.45601494,-0.45601494,-0.45601494,0.45601494,4982.0383,514.03493)"
       inkscape:label="spectrum-server-dark"
       inkscape:export-filename="../spectrum_server/spectrum_server_dark.png"
       inkscape:export-xdpi="96"
       inkscape:export-ydpi="96"><path
         style="baseline-shift:baseline;display:inline;overflow:visible;vector-effect:none;fill:#ffffff;fill-opacity:1;enable-background:accumulate;stop-color:#000000;stop-opacity:1"
         d="m 116.62033,364.85882 -24.62592,24.62594 c -4.791674,4.79163 -7.483573,11.29048 -7.48358,18.06687 l 3.2e-5,218.84639 c -1.6e-5,6.77637 2.691824,13.27522 7.483463,18.06685 l 24.625985,24.62598 c 4.13311,4.13311 10.83407,4.13298 14.96709,-4e-5 l 24.62593,-24.62593 c 4.79161,-4.79163 7.48347,-11.29054 7.48349,-18.0669 l 9e-5,-218.84637 c 3e-5,-6.77635 -2.69191,-13.27525 -7.4836,-18.06685 l -24.62589,-24.62595 c -4.13302,-4.13303 -10.83406,-4.13302 -14.96709,10e-6 z"
         id="path28"
         sodipodi:nodetypes="scccsssscccss" /><path
         id="path29"
         style="fill:#f50376;fill-opacity:1;stroke:none;stroke-width:16.5575;stroke-dasharray:none;stroke-opacity:1"
         d="m 265.09431,361.01741 c 4.79183,4.7916 7.48371,11.29039 7.48378,18.0669 v 275.78102 c -8e-5,6.77652 -2.69194,13.27528 -7.48377,18.0669 l -79.3043,79.30428 v -98.98204 l 5.06774,-5.06776 c 4.79183,-4.79161 7.4837,-11.29038 7.48379,-18.06689 l -0.001,-226.29 c -6e-5,-6.77621 -2.69174,-13.27478 -7.48321,-18.06633 l -5.06718,-5.06718 v -98.98319 z m -205.253536,-76.72736 1.4e-5,98.98317 -2.490248,2.49025 c -4.791455,4.79154 -7.483132,11.29013 -7.483197,18.06634 l -5.82e-4,226.29058 c 9.9e-5,6.77621 2.691776,13.27476 7.483209,18.06632 l 2.490829,2.49081 -2.7e-5,98.98206 -76.727361,-76.72734 c -4.791718,-4.79187 -7.48346,-11.29081 -7.483197,-18.06748 l 5.81e-4,-275.78047 c -2.63e-4,-6.77633 2.691271,-13.27509 7.482616,-18.06689 z" /><path
         id="path30"
         style="fill:#0f79f8;fill-opacity:1;stroke:none;stroke-width:30.9455;stroke-dasharray:none;stroke-opacity:1"
         d="m 156.21321,252.13716 c 4.79172,4.7916 7.48372,11.29047 7.48378,18.0669 l 0.0123,88.41149 -32.1222,-32.1222 c -4.13301,-4.13301 -10.83338,-4.13302 -14.9664,0 l -32.097274,32.09728 -0.01227,-88.38657 c -2.48e-4,-6.77655 2.691545,-13.27563 7.483205,-18.06746 l 24.625929,-24.62596 c 4.13319,-4.13282 10.8341,-4.13256 14.96698,5.7e-4 z m 7.49609,423.19805 -0.0123,88.41133 c -5e-5,6.77644 -2.69205,13.27529 -7.48377,18.0669 l -24.62595,24.62595 c -4.1332,4.13282 -10.8341,4.13256 -14.96697,-5.7e-4 L 91.99433,781.81286 c -4.791382,-4.79155 -7.483147,-11.29017 -7.48321,-18.06632 l 0.01231,-88.3864 32.09726,32.09727 c 4.13313,4.13312 10.8334,4.13302 14.96641,-10e-6 z"
         sodipodi:nodetypes="cccssccccccccccccccscc" /></g></g></svg>
