<?xml version="1.0" encoding="UTF-8" standalone="no"?>
<!-- Created with Inkscape (http://www.inkscape.org/) -->

<svg
   width="1023.5917"
   height="1023.5917"
   viewBox="0 0 270.82531 270.82531"
   version="1.1"
   id="svg1"
   xml:space="preserve"
   sodipodi:docname="design.svg"
   inkscape:version="1.4.3 (0d15f75042, 2025-12-25)"
   inkscape:export-filename="../spectrum_launcher/spectum_launcher_dark.svg"
   inkscape:export-xdpi="96"
   inkscape:export-ydpi="96"
   xmlns:inkscape="http://www.inkscape.org/namespaces/inkscape"
   xmlns:sodipodi="http://sodipodi.sourceforge.net/DTD/sodipodi-0.dtd"
   xmlns="http://www.w3.org/2000/svg"
   xmlns:svg="http://www.w3.org/2000/svg"><sodipodi:namedview
     id="namedview1"
     pagecolor="#ffffff"
     bordercolor="#000000"
     borderopacity="0.25"
     inkscape:showpageshadow="2"
     inkscape:pageopacity="0.0"
     inkscape:pagecheckerboard="0"
     inkscape:deskcolor="#ffffff"
     inkscape:document-units="mm"
     showgrid="true"
     inkscape:zoom="0.19645691"
     inkscape:cx="15723.55"
     inkscape:cy="1445.6096"
     inkscape:window-width="2560"
     inkscape:window-height="1360"
     inkscape:window-x="0"
     inkscape:window-y="0"
     inkscape:window-maximized="1"
     inkscape:current-layer="layer1"
     inkscape:export-bgcolor="#ffffff00"><inkscape:grid
       id="grid2"
       units="mm"
       originx="-3642.1147"
       originy="-17.777222"
       spacingx="4"
       spacingy="4"
       empcolor="#0099e5"
       empopacity="0.09803922"
       color="#0099e5"
       opacity="0.14901961"
       empspacing="5"
       enabled="true"
       visible="false"
       dotted="false" /><inkscape:page
       x="0"
       y="0"
       width="270.82532"
       height="270.82532"
       id="page2"
       margin="0"
       bleed="0" /></sodipodi:namedview><defs
     id="defs1" /><g
     inkscape:label="Logos"
     inkscape:groupmode="layer"
     id="layer1"
     transform="translate(-4182.1146,-557.7772)"><g
       id="g14"
       style="opacity:1"
       transform="matrix(-0.45601494,-0.45601494,-0.45601494,0.45601494,4610.557,512.38623)"
       inkscape:label="spectrum-server-light"
       inkscape:export-filename="../spectrum_server/spectrum_server_light.svg"
       inkscape:export-xdpi="96"
       inkscape:export-ydpi="96"><path
         style="baseline-shift:baseline;display:inline;overflow:visible;vector-effect:none;fill:#0c090d;fill-opacity:1;enable-background:accumulate;stop-color:#000000;stop-opacity:1"
         d="m 115.56695,367.42084 -24.625923,24.62594 c -4.791674,4.79163 -7.483573,11.29048 -7.48358,18.06687 l 3.2e-5,218.84639 c -1.6e-5,6.77637 2.691824,13.27522 7.483463,18.06685 l 24.625988,24.62598 c 4.13311,4.13311 10.83407,4.13298 14.96709,-4e-5 l 24.62593,-24.62593 c 4.79161,-4.79163 7.48347,-11.29054 7.48349,-18.0669 l 9e-5,-218.84637 c 3e-5,-6.77635 -2.69191,-13.27525 -7.4836,-18.06685 l -24.62589,-24.62595 c -4.13302,-4.13303 -10.83406,-4.13302 -14.96709,10e-6 z"
         id="path14"
         sodipodi:nodetypes="scccsssscccss" /><path
         id="path25"
         style="fill:#f50376;fill-opacity:1;stroke:none;stroke-width:10.678;stroke-dasharray:none;stroke-opacity:1"
         d="m 142.29182,0.0540014 c -4.37019,-1.0324e-4 -8.56127,1.7359019 -11.65149,4.8260625 L 4.8800618,130.64033 c -3.0901599,3.09023 -4.82616008,7.28129 -4.82606321,11.65149 l 4.24e-6,72.32788 45.13729417,-45.13729 5e-6,-4.62194 c -1e-4,-4.37019 1.735906,-8.56126 4.826058,-11.65149 L 153.2095,50.017878 c 3.09008,-3.090026 7.28097,-4.826024 11.65097,-4.826064 l 4.62142,10e-7 45.13781,-45.13781289 z m 128.5875,58.6098606 -45.13781,45.137798 v 2.27118 c -4e-5,4.36999 -1.73605,8.56089 -4.82607,11.65097 L 117.72382,220.91596 c -3.0901,3.09001 -7.28098,4.826 -11.65097,4.82606 l -2.2717,-1e-5 -45.137286,45.13731 69.977636,10e-6 c 4.37026,-7e-5 8.56135,-1.73621 11.65149,-4.82659 L 266.05274,140.29246 c 3.09023,-3.08999 4.82638,-7.2809 4.82659,-11.65096 z"
         transform="matrix(-1.0964553,-1.0964553,-1.0964553,1.0964553,420.11676,519.53684)" /><path
         id="path27"
         style="fill:#0f79f8;fill-opacity:1;stroke:none;stroke-width:30.9455;stroke-dasharray:none;stroke-opacity:1"
         d="m 155.15983,254.69918 c 4.79172,4.7916 7.48372,11.29047 7.48378,18.0669 l 0.0123,88.41149 -32.1222,-32.1222 c -4.13301,-4.13301 -10.83338,-4.13302 -14.9664,0 l -32.097277,32.09728 -0.01227,-88.38657 c -2.48e-4,-6.77655 2.691545,-13.27563 7.483205,-18.06746 L 115.5669,230.07266 c 4.13319,-4.13282 10.8341,-4.13256 14.96698,5.7e-4 z m 7.49609,423.19805 -0.0123,88.41133 c -5e-5,6.77644 -2.69205,13.27529 -7.48377,18.0669 l -24.62595,24.62595 c -4.1332,4.13282 -10.8341,4.13256 -14.96697,-5.7e-4 L 90.940947,784.37488 c -4.791382,-4.79155 -7.483147,-11.29017 -7.48321,-18.06632 l 0.01231,-88.3864 32.097263,32.09727 c 4.13313,4.13312 10.8334,4.13302 14.96641,-1e-5 z"
         sodipodi:nodetypes="cccssccccccccccccccscc" /></g></g></svg>
